<?xml version="1.0" standalone="no"?>
<!DOCTYPE svg PUBLIC "-//W3C//DTD SVG 1.1//EN" "http://www.w3.org/Graphics/SVG/1.1/DTD/svg11.dtd" >
<svg xmlns="http://www.w3.org/2000/svg">
<metadata>Generated by IcoMoon</metadata>
<defs>
<font id="icomoon" horiz-adv-x="1024">
<font-face units-per-em="1024" ascent="960" descent="-64" />
<missing-glyph horiz-adv-x="1024" />
<glyph unicode="&#x20;" horiz-adv-x="512" d="" />
<glyph unicode="&#xe116;" glyph-name="check" d="M917.333 725.334q18.333 0 30.5-12.167t12.167-30.5q0-18-12.333-30.333l-512-512q-12.333-12.333-30.333-12.333t-30.333 12.333l-256 256q-12.333 12.333-12.333 30.333 0 18.333 12.167 30.5t30.5 12.167q18 0 30.333-12.333l225.667-226 481.667 482q12.333 12.333 30.333 12.333z" />
<glyph unicode="&#xe900;" glyph-name="facebook" d="M608 768h160v192h-160c-123.52 0-224-100.48-224-224v-96h-128v-192h128v-512h192v512h160l32 192h-192v96c0 17.344 14.656 32 32 32z" />
<glyph unicode="&#xe901;" glyph-name="flickr" d="M0 416c0 123.712 100.288 224 224 224s224-100.288 224-224c0-123.712-100.288-224-224-224s-224 100.288-224 224zM576 416c0 123.712 100.288 224 224 224s224-100.288 224-224c0-123.712-100.288-224-224-224s-224 100.288-224 224z" />
<glyph unicode="&#xe902;" glyph-name="gmail" horiz-adv-x="1440" d="M1324.224 960h-1208.16c-63.936 0-116.064-52.128-116.064-116.064v-791.744c0-64.032 52.128-116.064 116.064-116.064h1208.16c64.032 0 116.16 52.064 116.16 116.064v791.744c0 63.936-52.128 116.064-116.16 116.064zM1401.056 881.472l-484.864-422.816 265.824-249.536c9.376-8.64 9.824-23.424 1.088-32.704-4.608-4.96-10.72-7.392-16.928-7.392-5.76 0-11.424 2.080-16.032 6.304l-267.104 250.784c-0.736 0.736-0.992 1.536-1.536 2.24l-76.096-66.368c-23.52-20.544-54.4-30.72-85.28-30.72s-61.696 10.176-85.184 30.72l-76 66.272c-0.64-0.64-0.896-1.536-1.632-2.176l-267.264-250.72c-4.512-4.224-10.272-6.304-15.84-6.304-6.208 0-12.416 2.432-16.928 7.392-8.928 9.28-8.48 24.032 0.896 32.704l266.016 249.536-485.664 423.52c-9.632 8.384-10.624 23.136-2.24 32.768 8.48 9.632 23.136 10.528 32.768 2.24l596.32-520.16c29.728-25.856 79.872-25.856 109.504 0l595.52 519.328c9.632 8.384 24.416 7.488 32.768-2.24 8.48-9.728 7.552-24.32-2.176-32.768z" />
<glyph unicode="&#xe903;" glyph-name="google-plus" horiz-adv-x="960" d="M528.128 418.72c-23.584 16.928-50.272 36.032-50.272 46.336 0 14.208 26.176 42.112 51.456 69.024 50.272 53.664 119.168 127.2 119.168 221.088 0 88.064-54.176 140.8-120.864 170.688h103.808c9.408 0 17.056 7.648 17.056 17.056s-7.584 17.056-17.056 17.056h-273.024c-5.184 0-10.624-0.32-16.704-0.64-12.192 0.896-24.416 0.192-35.648-2.4-3.168-0.768-6.080-1.824-8.992-3.168l-2.016-0.832c-104.992-22.048-226.752-100.192-226.752-248.96 0-150.784 158.112-209.76 258.816-220.128-27.488-50.496-16.256-103.232 1.216-138.816-118.144-4.16-328.288-36.48-328.288-212.736 0-126.56 111.968-196.288 315.2-196.288h9.088c75.68 0 358.368 40.576 358.368 238.912 0 132.96-93.12 199.648-154.56 243.776zM234.528 725.92c-20.288 88.064 10.56 173.024 70.304 194.208 12.768 2.528 25.28 4.16 37.184 4.992 57.088-6.016 111.456-66.432 129.472-144.448 21.76-94.016-13.792-182.752-79.072-197.792-64.352-14.912-136.608 51.328-157.856 143.072zM358.368 4.288c-92.224 0-187.68 57.472-187.68 153.632 0 99.616 109.056 152.352 218.048 153.632 46.912-22.688 157.408-89.76 157.408-153.632 0-82.752-103.232-153.632-187.744-153.632zM938.656 550.4h-85.344v85.344c0 9.408-7.648 17.056-17.056 17.056-9.472 0-17.12-7.648-17.12-17.056v-85.344h-85.344c-9.408 0-17.12-7.648-17.12-17.056s7.648-17.056 17.12-17.056h85.344v-85.344c0-9.408 7.584-17.056 17.12-17.056 9.344 0 17.056 7.648 17.056 17.056v85.344h85.344c9.408 0 17.056 7.648 17.056 17.056-0.064 9.408-7.648 17.056-17.056 17.056z" />
<glyph unicode="&#xe904;" glyph-name="icon-cart" horiz-adv-x="1503" d="M361.88 789.822l-95.474 170.178h-266.406v-83.749h217.329l372.181-663.628h659.775l253.676 580.13-1141.081-2.931zM1194.513 296.372h-555.926l-229.807 409.784 966.046 2.512-180.312-412.297zM1100.882 166.31c-63.649 0-115.155-51.506-115.155-115.155s51.506-115.155 115.155-115.155 115.155 51.506 115.155 115.155-51.589 115.155-115.155 115.155zM1100.882 19.749c-17.336 0-31.322 14.070-31.406 31.406 0.084 17.336 14.070 31.406 31.406 31.406s31.322-14.070 31.406-31.406c-0.084-17.336-14.070-31.406-31.406-31.406zM708.936 166.31c-63.649 0-115.155-51.506-115.155-115.155s51.506-115.155 115.155-115.155 115.155 51.506 115.155 115.155-51.506 115.155-115.155 115.155zM708.936 19.749c-17.336 0-31.406 14.070-31.406 31.406s14.070 31.406 31.406 31.406 31.406-14.070 31.406-31.406c0-17.336-14.070-31.406-31.406-31.406z" />
<glyph unicode="&#xe905;" glyph-name="icon-seach" horiz-adv-x="860" d="M860.214 3.627l-220.657 280.813c80.637 70.718 131.84 174.155 131.84 289.894 0 213.057-172.674 385.667-385.667 385.667-213.057 0-385.731-172.61-385.731-385.667s172.674-385.602 385.731-385.602c57.773 0 112.389 13.075 161.596 35.874l226.84-288.541 86.047 67.562zM190.386 378.988c-50.044 50.237-80.83 118.895-80.895 195.345 0 76.515 30.851 145.172 80.895 195.345 50.173 50.044 118.83 80.83 195.345 80.895 76.451-0.064 145.108-30.851 195.281-80.895 50.044-50.173 80.83-118.895 80.895-195.345-0.064-76.451-30.851-145.172-80.895-195.281-50.173-50.044-118.83-80.83-195.281-80.895-76.515 0.064-145.172 30.786-195.345 80.83z" />
<glyph unicode="&#xe906;" glyph-name="icon-sidebar" horiz-adv-x="932" d="M491.062 960v-73.468h367.341v-877.064h-367.341v-73.468h440.809v1024zM711.466 374.532v146.936h-474.237l195.499 195.352-81.991 81.991-350.737-350.811 350.737-350.737 81.991 81.844-195.499 195.425z" />
<glyph unicode="&#xe907;" glyph-name="instagram" d="M870.429 960h-716.794c-25.082 0-48.304-6.607-69.28-17.256-5.196-0.321-9.494-2.887-12.381-6.736-43.108-27.263-71.974-74.989-71.974-129.644v-716.794c0-84.676 68.895-153.635 153.635-153.635h716.794c84.676 0 153.635 68.895 153.635 153.635v716.794c-0.064 84.74-68.959 153.635-153.635 153.635zM989.873 652.794h-256.914c-6.671 0-12.637-3.913-15.46-9.943s-1.796-13.15 2.502-18.218c41.953-49.33 65.111-112.067 65.111-176.665 0-150.62-122.523-273.079-273.079-273.079s-273.079 122.459-273.079 273.079c0 64.597 23.093 127.334 65.046 176.665 4.298 5.068 5.324 12.188 2.502 18.218-2.823 6.094-8.852 9.943-15.524 9.943h-256.85v153.571c0 32.459 13.15 61.775 34.191 83.329v-117.456c0-9.43 7.634-17.063 17.063-17.063s17.063 7.634 17.063 17.063v141.64c10.649 5.132 22.067 8.532 34.127 10.264v-151.903c0-9.43 7.634-17.063 17.063-17.063s16.999 7.634 16.999 17.063v153.635h34.191v-153.635c0-9.43 7.634-17.063 17.063-17.063s17.063 7.634 17.063 17.063v153.635h631.476c65.816 0 119.444-53.628 119.444-119.508v-153.571zM870.429 891.746h-136.572c-9.366 0-17.063-7.634-17.063-17.063v-136.508c0-9.43 7.634-17.063 17.063-17.063h136.572c9.366 0 17.063 7.634 17.063 17.063v136.508c-0.064 9.43-7.698 17.063-17.063 17.063zM511.968 686.921c-131.761 0-238.953-107.192-238.953-238.953s107.192-238.953 238.953-238.953c131.761 0 238.888 107.192 238.888 238.953s-107.064 238.953-238.888 238.953zM511.968 345.587c-56.451 0-102.381 45.93-102.381 102.381s45.93 102.381 102.381 102.381 102.381-45.93 102.381-102.381-45.866-102.381-102.381-102.381z" />
<glyph unicode="&#xe908;" glyph-name="linkedin2" d="M384 576h177.12v-90.784h2.528c24.64 44.192 84.96 90.784 174.848 90.784 186.944 0 221.504-116.384 221.504-267.744v-308.256h-184.608v273.28c0 65.184-1.344 149.024-96.032 149.024-96.16 0-110.816-70.976-110.816-144.288v-278.016h-184.544v576zM64 576h192v-576h-192v576zM256 736c0-53.024-42.976-96-96-96s-96 42.976-96 96c0 53.024 42.976 96 96 96s96-42.976 96-96z" />
<glyph unicode="&#xe909;" glyph-name="pinterest2" d="M512 960c-282.4 0-512-229.6-512-512s229.6-512 512-512 512 229.6 512 512-229.6 512-512 512zM512 4.384c-45.792 0-89.792 7.008-131.392 19.808 18.016 29.408 45.184 77.792 55.2 116.192 5.408 20.8 27.616 105.408 27.616 105.408 14.4-27.616 56.8-51.008 101.6-51.008 133.792 0 230.208 123.008 230.208 276 0 146.592-119.616 256.192-273.408 256.192-191.392 0-292.992-128.608-292.992-268.384 0-64.992 34.592-146.016 90.016-171.808 8.384-4 12.8-2.208 14.816 6.016 1.408 6.208 8.992 36.192 12.384 50.4 0.992 4.384 0.608 8.384-3.008 12.8-18.4 22.208-32.992 63.2-32.992 101.184 0 97.792 74.016 192.608 200.192 192.608 108.992 0 185.216-74.208 185.216-180.384 0-120-60.608-203.2-139.392-203.2-43.616 0-76.192 36-65.6 80.192 12.608 52.8 36.8 109.6 36.8 147.616 0 34.016-18.208 62.4-56.192 62.4-44.608 0-80.192-46.016-80.192-107.808 0-39.2 13.184-65.792 13.184-65.792s-44-185.792-52-220.384c-8.992-38.4-5.408-92.192-1.6-127.2-164.992 64.384-282.016 224.8-282.016 412.8 0 244.992 198.592 443.616 443.584 443.616s443.616-198.592 443.616-443.616c0-244.992-198.592-443.616-443.616-443.616z" />
<glyph unicode="&#xe90a;" glyph-name="rss" d="M136.288 209.056c-75.2 0-136.288-61.344-136.288-136.064 0-75.168 61.088-135.808 136.288-135.808 75.456 0 136.48 60.64 136.48 135.808 0 74.752-61.024 136.064-136.48 136.064zM0.16 612.064v-196.256c127.776 0 247.968-49.984 338.464-140.512 90.4-90.304 140.288-211.040 140.288-339.296h197.12c0 372.832-303.296 676.064-675.872 676.064zM0.384 960v-196.352c455.776 0 826.752-371.328 826.752-827.648h196.864c0 564.48-459.264 1024-1023.616 1024z" />
<glyph unicode="&#xe90b;" glyph-name="twitter" d="M1024 733.6c-37.6-16.8-78.208-28-120.608-32.992 43.392 26.016 76.608 67.2 92.384 116.192-40.608-24-85.6-41.6-133.408-51.008-38.4 40.8-92.992 66.208-153.408 66.208-116 0-210.016-94.016-210.016-210.016 0-16.384 1.792-32.384 5.408-47.808-174.592 8.8-329.408 92.416-432.992 219.584-18.016-31.008-28.384-67.2-28.384-105.6 0-72.8 36.992-137.184 93.408-174.816-34.4 0.992-66.784 10.592-95.2 26.208 0-0.8 0-1.792 0-2.592 0-101.792 72.416-186.816 168.608-205.984-17.6-4.8-36.192-7.392-55.392-7.392-13.6 0-26.592 1.408-39.584 3.808 26.816-83.392 104.416-144.192 196.192-146.016-72-56.384-162.4-90.016-260.992-90.016-16.992 0-33.6 0.992-50.208 3.008 93.216-59.808 203.584-94.4 322.208-94.4 386.4 0 597.792 320.192 597.792 597.792 0 9.184-0.192 18.208-0.608 27.2 40.992 29.408 76.608 66.4 104.8 108.608z" />
<glyph unicode="&#xe90c;" glyph-name="vimeo" d="M1023.616 685.984c-4.608-99.616-74.208-236.192-208.8-409.408-139.2-180.8-256.992-271.392-353.408-271.392-59.616 0-110.208 55.008-151.392 165.216-27.616 100.992-55.008 202.016-82.592 303.008-30.592 110.208-63.392 165.184-98.592 165.184-7.584 0-34.4-16.192-80.416-48.192l-48.192 62.016c50.592 44.384 100.416 88.8 149.408 133.184 67.392 58.208 118.016 88.8 151.808 92 79.584 7.584 128.8-46.816 147.2-163.392 19.808-125.792 33.6-204 41.408-234.592 23.008-104.416 48.192-156.608 75.808-156.608 21.408 0 53.6 33.792 96.608 101.6 42.784 67.616 65.792 119.2 68.992 154.592 6.208 58.4-16.8 87.808-68.992 87.808-24.608 0-49.792-5.6-75.808-16.8 50.4 164.8 146.4 244.8 288.384 240.192 104.992-2.784 154.592-71.008 148.608-204.416z" />
<glyph unicode="&#xe90d;" glyph-name="youtube" horiz-adv-x="1056" d="M211.872 753.12v-163.936c0-9.792 7.936-17.664 17.664-17.664s17.664 7.872 17.664 17.664v163.872l137.568 178.496c5.888 7.68 4.512 18.816-3.232 24.768-7.744 6.016-18.816 4.576-24.768-3.232l-127.232-164.992-127.232 164.992c-5.952 7.744-17.024 9.216-24.832 3.232-7.68-5.952-9.12-17.088-3.104-24.768l137.504-178.432zM317.792 733.376v-41.184c0-66.464 55.488-120.64 123.68-120.64 68.128 0 123.552 54.144 123.552 120.64v41.184c0 66.528-55.36 120.64-123.552 120.64s-123.68-54.080-123.68-120.64zM441.376 818.72c48.672 0 88.256-38.272 88.256-85.344v-41.184c0-47.072-39.584-85.344-88.256-85.344s-88.32 38.272-88.32 85.344v41.184c0 47.072 39.648 85.344 88.32 85.344zM863.776 253.792c-15.488 0-28.48-4.896-37.728-13.984-8.928-8.8-13.824-21.056-13.824-34.624v-4.384h101.44v4.384c0 27.264-22.848 48.8-49.856 48.608zM706.272 183.136c0-39.008-31.616-70.656-70.656-70.656s-70.656 31.616-70.656 70.656c0 39.008 31.616 70.656 70.656 70.656s70.656-31.616 70.656-70.656zM922.24 509.152l-233.696 20.32c-95.328 8.352-206.752 7.488-317.728-2.112l-233.696-20.384c-78.112-6.752-137.12-70.976-137.12-149.504v-244.896c0-78.528 58.976-142.752 137.12-149.568l233.696-20.32c51.296-4.448 104.864-6.752 159.424-6.752 54.080 0 107.392 2.24 158.304 6.688l233.632 20.32c78.24 6.88 137.12 71.104 137.12 149.568v247.2c0.064 78.4-58.848 142.592-137.056 149.44zM247.136 97.088c0-9.728-7.936-17.664-17.664-17.664s-17.6 7.872-17.6 17.664v262.624h-88.32c-9.728 0-17.6 7.872-17.6 17.6s7.872 17.664 17.6 17.664h211.872c9.792 0 17.664-7.872 17.664-17.664 0-9.728-7.872-17.6-17.664-17.6h-88.256v-262.624zM494.368 165.472c0-48.672-39.584-88.32-88.256-88.32-48.736 0-88.32 39.648-88.32 88.32v105.92c0 9.728 7.872 17.664 17.664 17.664s17.664-7.872 17.664-17.664v-105.92c0-29.184 23.776-52.96 52.96-52.96s52.96 23.712 52.96 52.96v105.92c0 9.728 7.936 17.664 17.664 17.664s17.664-7.872 17.664-17.664v-105.92zM635.648 77.152c-27.264 0-51.84 10.592-70.656 27.616v-7.68c0-9.728-7.936-17.664-17.664-17.664s-17.664 7.872-17.664 17.664v280.256c0 9.728 7.936 17.664 17.664 17.664s17.664-7.872 17.664-17.664v-115.872c18.816 16.96 43.424 27.552 70.656 27.552 58.4 0 105.92-47.552 105.92-105.92s-47.616-105.92-105.92-105.92zM948.992 183.136c0-9.728-7.872-17.664-17.728-17.664h-119.104v-4.384c0-26.752 21.792-48.544 48.448-48.544h39.776c9.728 0 17.664-7.936 17.664-17.664s-7.872-17.728-17.664-17.728h-39.712c-46.144 0-83.872 37.6-83.872 83.936v44.096c0 23.168 8.736 44.352 24.416 59.712 16.224 16.032 39.936 23.488 64.096 24.096 46.016 0 83.68-37.536 83.68-83.872v-21.984zM723.904 571.52c39.584 0 74.4 19.008 97.12 48 3.648-9.92 8.288-19.136 15.68-26.56 14.368-14.432 35.232-21.44 63.744-21.44 9.728 0 17.664 7.872 17.664 17.664 0 9.728-7.872 17.664-17.664 17.664-18.656 0-31.392 3.584-38.72 11.040-14.368 14.304-14.368 46.752-14.24 87.776v130.624c0 9.728-7.872 17.664-17.664 17.664s-17.664-7.872-17.664-17.664v-141.152c0-48.736-39.712-88.256-88.32-88.256s-88.192 39.52-88.192 88.256v141.152c0 9.728-7.872 17.664-17.664 17.664-9.728 0-17.6-7.872-17.6-17.664v-141.152c0-68.256 55.36-123.68 123.552-123.68z" />
<glyph unicode="&#xe90e;" glyph-name="dribbble" d="M512-64c-282.4 0-512 229.6-512 512s229.6 512 512 512c282.4 0 512-229.6 512-512s-229.6-512-512-512v0zM943.808 377.984c-15.008 4.8-135.392 40.608-272.384 18.592 57.216-157.184 80.384-285.184 84.992-311.808 98.016 66.4 168 171.392 187.392 293.216v0zM682.784 44.8c-6.592 38.4-31.808 172-93.216 331.616-0.992-0.384-2.016-0.608-2.784-0.992-246.816-86.016-335.392-256.992-343.2-272.992 74.208-57.792 167.392-92.384 268.384-92.384 60.608 0 118.4 12.384 170.816 34.784v0zM187.008 155.008c10.016 16.992 130.016 215.616 355.392 288.608 5.6 1.792 11.392 3.616 17.216 5.184-11.008 24.8-23.008 49.792-35.392 74.208-218.208-65.408-430.208-62.592-449.408-62.4-0.192-4.384-0.192-8.8-0.192-13.408 0-112.192 42.592-214.784 112.384-292.192v0zM84 536.992c19.584-0.192 199.808-0.992 404.384 53.184-72.384 128.8-150.592 237.184-162.208 252.992-122.4-57.792-214.016-170.592-242.208-306.208v0zM409.6 872.608c12-16.192 91.616-124.416 163.2-256 155.616 58.208 221.408 146.816 229.216 158.016-77.216 68.608-178.784 110.208-290.016 110.208-35.2-0.192-69.6-4.416-102.4-12.192v0zM850.592 723.808c-9.216-12.416-82.592-106.4-244.192-172.416 10.208-20.8 20-42.016 28.992-63.392 3.2-7.616 6.4-15.008 9.408-22.592 145.6 18.208 290.208-11.008 304.608-14.016-0.992 103.2-38.016 198.016-98.784 272.384v0z" />
<glyph unicode="&#xe90f;" glyph-name="arrow-buttons" horiz-adv-x="632" d="M0 840.444l119.556 119.556 512-512-512-512-119.556 119.556 392.651 392.444z" />
<glyph unicode="&#xe910;" glyph-name="back-to-top" horiz-adv-x="1660" d="M1466.453-64l193.751 193.825-830.102 830.175-830.102-830.175 193.825-193.825 636.278 636.497z" />
<glyph unicode="&#xe911;" glyph-name="icon-cart2" horiz-adv-x="918" d="M916.988 19.431l-125.089 616.347-0.579-0.116c-1.333 18.772-8.633 36.791-22.248 49.711-14.948 14.369-36.038 22.364-58.749 22.248h-510.204c-22.712-0.058-43.975-7.3-61.067-20.047-15.643-11.704-28.274-30.070-30.128-52.608l-0.29 0.058-108.634-618.838v-2.549c0-23.117 11.53-43.454 27.637-56.722 16.165-13.384 37.254-20.858 59.966-20.916h742.362c22.712 0.058 43.743 7.532 59.908 20.916 16.165 13.268 27.752 33.546 27.694 56.722v2.897l-0.579 2.897zM829.965-6.062h-742.362c-9.676-0.058-17.903 3.36-22.944 7.59l-6.373 11.472 107.881 614.493v2.549c-0.116 1.912 1.217 6.199 7.764 11.24 6.257 4.867 16.512 8.517 26.188 8.459h510.32c9.734-0.058 15.238-3.013 18.714-6.257 3.476-3.36 5.388-7.474 5.446-13.442v-2.897l124.567-614.261-6.257-11.298c-5.041-4.287-13.268-7.706-22.944-7.648zM372.543 858.145c23.349 28.158 53.535 43.917 86.212 43.917 32.619 0 62.863-15.759 86.212-43.917 18.308-22.074 31.287-51.855 36.096-85.343h57.938c-5.214 46.814-22.306 89.399-49.363 122.25-32.156 39.108-78.738 64.949-130.882 64.949s-98.727-25.84-130.882-64.949c-27.057-32.851-44.149-75.436-49.305-122.25h57.938c4.751 33.488 17.729 63.211 36.038 85.343z" />
<glyph unicode="&#xe912;" glyph-name="icon-quote" horiz-adv-x="1302" d="M512.025 764.622l-92.638 195.378c-101.065-35.922-184.193-85.346-249.286-148.222-65.143-62.876-109.737-133.882-133.882-213.068-24.145-79.137-36.218-187.199-36.218-324.185v-338.525h473.245v473.245h-229.034c2.217 93.18 23.849 167.833 64.847 224.008 40.997 56.125 108.653 99.931 202.967 131.369zM1098.998 633.252c40.948 56.125 108.604 99.931 202.918 131.369l-92.638 195.378c-99.931-35.922-182.764-85.346-248.399-148.222-65.734-62.876-110.624-133.636-134.72-212.231-24.145-78.595-36.218-186.952-36.218-325.072v-338.525h473.245v473.245h-229.034c2.168 93.23 23.849 167.883 64.847 224.057z" />
<glyph unicode="&#xe913;" glyph-name="icon-seach2" horiz-adv-x="951" d="M951.207 23.211l-220.504 239.169c66.229 74.016 106.905 171.589 106.905 278.816 0 231.317-187.422 418.804-418.804 418.804-231.317 0-418.804-187.487-418.804-418.804s187.487-418.804 418.804-418.804c77.556 0 149.964 21.497 212.202 58.183l225.525-244.576 94.677 87.211zM213.682 336.074c-52.584 52.713-84.958 124.798-84.958 205.122 0 80.259 32.374 152.409 84.958 205.122 52.713 52.584 124.862 84.958 205.122 84.958 80.324 0 152.409-32.374 205.122-84.958 52.584-52.713 84.894-124.798 84.958-205.122-0.064-80.324-32.374-152.409-84.958-205.122-52.713-52.584-124.798-84.958-205.122-84.958s-152.409 32.31-205.122 84.958z" />
<glyph unicode="&#xe914;" glyph-name="Arrow-dropdown" horiz-adv-x="1703" d="M1024.244 108.54l679.164 678.675-172.785 172.785-679.164-678.675-678.919 678.675-172.54-172.785 851.46-851.215z" />
<glyph unicode="&#xe915;" glyph-name="Arrow-store-Categories" d="M1024 478.118h-58.729v60.235h-60.235v60.235h-60.235v60.235h-60.235v-180.706h-784.565v-60.235h784.565v-180.706h60.235v60.235h60.235v60.235h60.235v60.235h58.729z" />
<glyph unicode="&#xe916;" glyph-name="Arrow-store-Categories2" horiz-adv-x="2487" d="M2486.857 521.143h-142.629v146.286h-146.286v146.286h-146.286v146.286h-146.286v-438.857h-1905.371v-146.286h1905.371v-438.857h146.286v146.286h146.286v146.286h146.286v146.286h142.629z" />
<glyph unicode="&#xe917;" glyph-name="uniE917" d="M512 960c-282.77 0-512-229.23-512-512s229.23-512 512-512 512 229.23 512 512-229.23 512-512 512zM512-12.566c-254.362 0-460.595 206.234-460.595 460.566 0 254.362 206.234 460.595 460.595 460.595 254.332 0 460.566-206.234 460.566-460.595 0-254.332-206.234-460.566-460.566-460.566zM512 820.795c205.883 0 372.795-166.912 372.795-372.795s-166.912-372.795-372.795-372.795-372.795 166.912-372.795 372.795 166.912 372.795 372.795 372.795z" />
<glyph unicode="&#xe918;" glyph-name="uniE918" d="M409.6 390.393h204.8v-49.035h-204.8v49.035zM433.386 428.866l-23.786 23.815 101.961 101.961 101.99-101.961-23.815-23.815-78.146 78.175-78.204-78.175z" />
<glyph unicode="&#xe919;" glyph-name="GalleryPlus" d="M1024 461.838h-498.162v498.162h-27.676v-498.162h-498.162v-27.676h498.162v-498.162h27.676v498.162h498.162z" />
<glyph unicode="&#xe91a;" glyph-name="icon-quote2" horiz-adv-x="1302" d="M512.025 764.622l-92.638 195.378c-101.065-35.922-184.193-85.346-249.286-148.222-65.143-62.876-109.737-133.882-133.882-213.068-24.145-79.137-36.218-187.199-36.218-324.185v-338.525h473.245v473.245h-229.034c2.217 93.18 23.849 167.833 64.847 224.008 40.997 56.125 108.653 99.931 202.967 131.369zM1098.998 633.252c40.948 56.125 108.604 99.931 202.918 131.369l-92.638 195.378c-99.931-35.922-182.764-85.346-248.399-148.222-65.734-62.876-110.624-133.636-134.72-212.231-24.145-78.595-36.218-186.952-36.218-325.072v-338.525h473.245v473.245h-229.034c2.168 93.23 23.849 167.883 64.847 224.057z" />
<glyph unicode="&#xe91b;" glyph-name="lock" d="M512 960c-280.473 0-512-231.527-512-512s231.527-512 512-512 512 231.527 512 512-231.444 512-512 512zM512 25.061c-231.527 0-422.939 191.412-422.939 422.939s191.412 422.939 422.939 422.939 422.939-191.412 422.939-422.939-191.412-422.939-422.939-422.939zM534.286 456.832v258.27c0 13.372-8.832 22.286-22.286 22.286s-22.286-8.914-22.286-22.286v-267.102c0-8.832 4.54-13.372 8.832-17.746l222.612-178.123c4.54-4.54 9.079-4.54 13.454-4.54s13.289 4.54 17.746 8.914c8.914 8.832 4.54 22.286-4.457 31.118l-213.615 169.208z" />
<glyph unicode="&#xe91c;" glyph-name="Map" horiz-adv-x="734" d="M367.167 960c-202.798 0-367.167-181.262-367.167-404.796 0-311.123 367.167-619.124 367.167-619.124s367.167 309.522 367.167 619.124c0 223.535-164.368 404.796-367.167 404.796zM367.167 418.217c-99.438 0-179.981 80.623-179.981 180.061s80.543 180.061 179.981 180.061 180.141-80.623 180.141-180.061c0-99.438-80.703-180.061-180.141-180.061z" />
<glyph unicode="&#xe91d;" glyph-name="phone" d="M943.133 285.785c-63.11 0-125.020 9.918-183.731 29.195-28.556 9.918-61.11 2.32-79.908-16.797l-116.222-87.826c-133.339 71.189-218.766 156.536-288.995 288.915l85.427 113.422c21.517 21.597 29.195 53.032 19.997 82.467-19.437 59.031-29.355 120.941-29.355 183.971-0.080 44.633-36.314 80.867-80.867 80.867h-188.611c-44.633 0-80.867-36.234-80.867-80.867 0-520.079 423.134-943.133 943.133-943.133 44.633 0 80.867 36.234 80.867 80.867v188.131c0 44.553-36.234 80.787-80.867 80.787z" />
<glyph unicode="&#xe91e;" glyph-name="icon-cart3" d="M824.889 732.444h-85.333v28.388c0 122.994-118.101 199.168-227.556 199.168s-227.556-76.174-227.556-199.168v-28.388h-85.333c-47.047 0-85.333-38.343-85.333-85.333v-625.778c0-47.104 38.286-85.333 85.333-85.333h625.778c46.99 0 85.333 38.229 85.333 85.333v625.778c0 46.99-38.286 85.333-85.333 85.333zM341.333 760.832c0 85.39 85.333 142.279 170.667 142.279s170.667-56.889 170.667-142.279v-28.388h-341.333v28.388zM853.333 21.333c0-15.758-12.8-28.444-28.444-28.444h-625.778c-15.701 0-28.444 12.686-28.444 28.444v625.778c0 15.701 12.743 28.388 28.444 28.388h625.778c15.644 0 28.444-12.686 28.444-28.388v-625.778z" />
<glyph unicode="&#xe91f;" glyph-name="icon-seach3" d="M971.456-46.592l-207.232 263.68c89.472 77.568 146.368 191.808 146.368 319.616 0 233.856-189.504 423.296-423.296 423.296-233.728 0-423.296-189.44-423.296-423.296 0-233.792 189.568-423.168 423.296-423.232 82.944 0 160.128 24.256 225.472 65.472l208.448-265.216 50.24 39.68zM233.28 282.688c-65.088 65.152-105.28 154.688-105.28 254.016s40.192 188.992 105.28 254.080c65.088 65.088 154.688 105.216 254.016 105.216 99.264 0 188.928-40.128 254.016-105.216 65.152-65.088 105.28-154.688 105.28-254.080 0-99.328-40.128-188.928-105.28-254.016-65.152-65.024-154.752-105.152-254.016-105.216-99.328 0.064-188.928 40.192-254.016 105.216z" />
<glyph unicode="&#xe920;" glyph-name="testimonial" horiz-adv-x="1207" d="M733.537 960h473.254v-338.536c0-136.934-12.034-245.051-36.229-324.19-24.131-79.14-68.752-150.14-133.894-213.065-65.11-62.862-148.208-112.265-249.263-148.208l-92.63 195.363c94.309 31.447 161.953 75.244 202.932 131.329 41.011 56.148 62.609 130.822 64.857 224.023h-229.058v473.285zM38.762 960h473.254v-338.536c0-138.075-12.066-246.412-36.229-325.045-24.131-78.569-69.069-149.317-134.749-212.21-65.68-62.862-148.462-112.265-248.439-148.208l-92.599 195.363c94.34 31.447 161.984 75.244 202.963 131.329 40.979 56.148 62.609 130.822 64.825 224.023h-229.026v473.285z" />
<glyph unicode="&#xe926;" glyph-name="Backtotopnormal" horiz-adv-x="458" d="M195.23 3.298h67.23v-67.298h-67.23v67.298zM415.159 655.075l42.599 39.706-228.879 265.22-41.119-47.579v-0.067l-187.76-217.573 40.446-41.926 154.784 180.021v-829.577h67.298v829.51l7.47-8.614h-0.067z" />
</font>
</defs>
</svg>
